# xmcd
#
# Track frame offsets:
#	150
#	8176
#	27468
#	43304
#	67358
#	82510
#	100906
#	129082
#	147868
#	204202
#	227388
#	260594
#	285442
#
# Disc length: 4192 seconds
#
# Revision: 1
# Processed by: cddbd v1.5.2PL0 Copyright (c) Steve Scherf et al.
# Submitted via: EasyCDDAExtractor 7.0.5.1
#
DISCID=a9105e0d
DTITLE=Whiskey River - Whiskey River Oczko live 12.03.2004 part 1
DYEAR=2004
DGENRE=Country
TTITLE0=Black Eyed Suzie - live Oczko 12.03.2004
TTITLE1=Corrina, Corrina - live Oczko 12.03.2004
TTITLE2=Walkin' On The Line - live Oczko 12.03.2004
TTITLE3=Bad Moon Rising - live Oczko 12.03.2004
TTITLE4=Gold Watch and Chain - live Oczko 12.03.2004
TTITLE5=Ain't That Sunshine - live Oczko 12.03.2004
TTITLE6=Sweet Home Alabama - live Oczko 12.03.2004
TTITLE7=bez tytu³u (Dixie Chicks) - live Oczko 12.03.2004
TTITLE8=Will The Cirkle Be Unbroken - live Oczko 12.03.2004
TTITLE9=Go Tell It On The Mountain (gospel) - live Oczko 12.03.2004
TTITLE10=When The Sunshine - live Oczko 12.03.2004
TTITLE11=Jambalaya - live Oczko 12.03.2004
TTITLE12=Sweet Home Chicago - live Oczko 12.03.2004
EXTD=
EXTT0=
EXTT1=
EXTT2=
EXTT3=
EXTT4=
EXTT5=
EXTT6=
EXTT7=
EXTT8=
EXTT9=
EXTT10=
EXTT11=
EXTT12=
PLAYORDER=
